<svg viewBox="0 -32 511.99944 511" xmlns="http://www.w3.org/2000/svg">
  <path
    d="m410.1875 374.464844c-1.167969 17.027344-7.660156 32.894531-18.757812 45.871094-11.09375 12.976562-25.757813 21.839843-42.40625 25.640624-5.863282 1.339844-11.773438 2-17.65625 2-10.824219 0-21.550782-2.238281-31.664063-6.691406-19.796875-8.703125-41.039063-13.054687-62.285156-13.054687-20.878907 0-41.757813 4.199219-61.265625 12.605469l-1.023438.449218c-15.636718 6.871094-32.691406 8.492188-49.339844 4.691406-16.636718-3.8125-31.300781-12.675781-42.40625-25.652343-11.085937-12.984375-17.566406-28.839844-18.738281-45.867188-1.171875-17.027343 3.082031-33.632812 12.292969-48l55.515625-86.605469c23.039063-35.9375 62.277344-57.394531 104.964844-57.394531s81.921875 21.457031 104.960937 57.394531l55.515625 86.605469c9.214844 14.375 13.464844 30.972657 12.292969 48.007813zm0 0"
    fill="#05f" />
  <path
    d="m91.894531 239.738281c16.515625-6.34375 29.0625-19.652343 35.328125-37.472656 5.964844-16.964844 5.476563-36.113281-1.378906-53.921875-6.859375-17.804688-19.335938-32.335938-35.128906-40.921875-16.597656-9.023437-34.828125-10.488281-51.316406-4.136719-33.171876 12.753906-48.394532 53.75-33.929688 91.398438 11.554688 29.96875 38.503906 48.886718 65.75 48.886718 6.957031 0 13.933594-1.234374 20.675781-3.832031zm0 0"
    fill="#05f" />
  <path
    d="m274.824219 86.207031c0 31.550781-15.058594 59.171875-37.40625 74.039063-11.117188 7.402344-24.042969 11.644531-37.808594 11.644531-41.464844 0-75.199219-38.445313-75.199219-85.683594 0-47.261719 33.734375-85.707031 75.199219-85.707031 13.765625 0 26.691406 4.242188 37.808594 11.644531 22.347656 14.867188 37.40625 42.496094 37.40625 74.0625zm0 0"
    fill="#05f" />
  <g fill="#578fff">
    <path
      d="m419.824219 140.226562c-11.246094 33.824219-40.71875 55.84375-70.960938 55.84375-6.472656 0-12.984375-1.007812-19.367187-3.128906-36.136719-12.015625-54.433594-55.214844-40.777344-96.292968 6.460938-19.464844 19.128906-35.703126 35.65625-45.71875 17.304688-10.472657 36.714844-12.964844 54.660156-7 17.949219 5.972656 32.003906 19.578124 39.585938 38.324218 7.253906 17.90625 7.683594 38.496094 1.203125 57.972656zm0 0" />
    <path
      d="m496.214844 280.058594c-15.257813 20.597656-38.09375 31.800781-60.042969 31.800781-12.597656 0-24.902344-3.679687-35.316406-11.402344-28.550781-21.128906-32.292969-64.699219-8.34375-97.113281 23.980469-32.390625 66.746093-41.546875 95.351562-20.417969l.007813.011719c28.5625 21.148438 32.304687 64.714844 8.34375 97.121094zm0 0" />
    <path
      d="m237.417969 160.246094v-148.101563c22.347656 14.867188 37.40625 42.496094 37.40625 74.0625 0 31.550781-15.058594 59.171875-37.40625 74.039063zm0 0" />
    <path
      d="m397.894531 326.457031c9.214844 14.375 13.464844 30.972657 12.292969 48.007813-1.167969 17.027344-7.660156 32.894531-18.757812 45.871094-11.09375 12.976562-25.757813 21.839843-42.40625 25.640624-5.863282 1.339844-11.773438 2-17.65625 2-10.824219 0-21.550782-2.238281-31.664063-6.691406-19.796875-8.703125-41.039063-13.054687-62.285156-13.054687v-245.773438c42.6875 0 81.921875 21.457031 104.960937 57.394531zm0 0" />
  </g>
</svg>
